<svg width="17" height="16" viewBox="0 0 17 16" fill="none" xmlns="http://www.w3.org/2000/svg">
<g clip-path="url(#clip0_1_511)">
<path d="M4.67913 6.5811C5.25147 7.55497 5.91013 8.4922 6.76456 9.34659C7.62286 10.205 8.68564 10.9873 10.0676 11.6505L10.069 11.6512L10.0692 11.6505C10.17 11.6991 10.2658 11.6979 10.3559 11.666C10.4865 11.6198 10.6225 11.5172 10.7547 11.393C10.8556 11.298 10.982 11.1412 11.1187 10.9712C11.6508 10.3099 12.3087 9.49237 13.2374 9.89908C13.257 9.90759 13.2756 9.91753 13.293 9.92866L16.3882 11.6105C16.3993 11.6165 16.4099 11.6229 16.42 11.6297C16.8304 11.8962 16.9979 12.3065 16.9997 12.766C17.0016 13.2398 16.8158 13.7702 16.5468 14.2187C16.1919 14.8098 15.6631 15.2004 15.058 15.4651C14.4811 15.7174 13.8408 15.8517 13.2226 15.9373C12.2557 16.0714 11.3441 15.9862 10.4158 15.7159C9.50963 15.4519 8.59295 15.0112 7.59353 14.4256L7.52076 14.3829C7.06062 14.1133 6.56534 13.8233 6.08348 13.4794C4.30365 12.2088 2.49118 10.375 1.31593 8.36251C0.326612 6.66838 -0.214737 4.84117 0.0803557 3.09888C0.242083 2.14281 0.678012 1.27494 1.42951 0.700067C2.08831 0.195859 2.97733 -0.0772478 4.12007 0.0191969C4.25468 0.0301892 4.36812 0.102817 4.43204 0.204889L4.43287 0.204496L6.41454 3.3805C6.70645 3.73618 6.73883 4.08911 6.58097 4.43995C6.45051 4.7302 6.18088 4.99624 5.82339 5.2471C5.71465 5.33216 5.58709 5.42049 5.45553 5.51157C5.01309 5.81792 4.50702 6.16823 4.67913 6.5811ZM6.17991 9.86977C5.26627 8.9561 4.57025 7.96679 3.96983 6.94411C3.95931 6.92801 3.9499 6.911 3.94188 6.89307C3.50277 5.91698 4.29051 5.37181 4.97851 4.89587C5.09541 4.815 5.20858 4.73661 5.31068 4.65652L5.31095 4.65692C5.3169 4.6522 5.32313 4.64762 5.32963 4.64318C5.5846 4.46599 5.76833 4.29679 5.83847 4.14106C5.87845 4.05221 5.86365 3.95445 5.774 3.84466C5.75864 3.82778 5.74453 3.8092 5.73208 3.78931L3.84531 0.76576C3.03336 0.734222 2.40388 0.938627 1.93835 1.29496C1.3519 1.74369 1.00824 2.44117 0.876677 3.21849C0.613128 4.77495 1.11408 6.43689 2.02385 7.99492C3.14141 9.9085 4.87032 11.656 6.57046 12.8695C7.03793 13.2032 7.50789 13.4784 7.94452 13.7341L8.01729 13.7768C8.96053 14.3294 9.81814 14.7433 10.6531 14.9864C11.466 15.2232 12.2626 15.2979 13.1058 15.1809C13.6604 15.1041 14.2282 14.9866 14.72 14.7714C15.1836 14.5686 15.5844 14.2761 15.8453 13.8418C16.0523 13.4967 16.1954 13.102 16.1941 12.7659C16.1933 12.5526 16.1288 12.3695 15.9721 12.2628L12.8939 10.5906C12.5534 10.4491 12.1151 10.9937 11.7604 11.4346C11.6077 11.6246 11.4664 11.8 11.3238 11.9341C11.1194 12.1259 10.8924 12.2904 10.6373 12.3805C10.3418 12.485 10.0293 12.4896 9.70276 12.3321L9.70304 12.3315C8.23463 11.6268 7.10033 10.7904 6.17991 9.86977Z" fill="#FFA726"/>
</g>
<defs>
<clipPath id="clip0_1_511">
<rect width="17" height="16" fill="white"/>
</clipPath>
</defs>
</svg>
