<svg width="15" height="11" viewBox="0 0 15 11" fill="none" xmlns="http://www.w3.org/2000/svg">
<path d="M14.1396 0H0.860236C0.62354 0 0.40845 0.098295 0.252687 0.256136C0.0968018 0.414225 0 0.632727 0 0.872523V10.1275C0 10.3083 0.0550537 10.4768 0.149049 10.6166C0.166261 10.6618 0.193116 10.7039 0.229859 10.7397C0.254395 10.7631 0.281374 10.7822 0.309938 10.7967C0.459476 10.9231 0.651616 11.0001 0.860236 11.0001H14.1396C14.3761 11.0001 14.5914 10.902 14.7474 10.7439C14.9031 10.5859 15 10.3678 15 10.1275V0.872523C15 0.632232 14.9033 0.413978 14.7476 0.256136C14.5918 0.0980474 14.3766 0 14.1396 0ZM14.3401 9.76042L9.68624 5.02889L14.3401 1.18078V9.76042ZM9.17366 5.45265L13.9717 10.3308H1.06861L5.65385 5.45339L7.16546 6.75957C7.28399 6.86233 7.46149 6.86814 7.58698 6.7649L9.17366 5.45265ZM5.15202 5.01985L0.659917 9.79818V1.13869L5.15202 5.01985ZM13.9176 0.669248L7.38421 6.07163L1.13136 0.669248H13.9176Z" fill="#FFA726"/>
</svg>
