<svg width="14" height="19" viewBox="0 0 14 19" fill="none" xmlns="http://www.w3.org/2000/svg">
<g clip-path="url(#clip0_1_505)">
<path d="M7.20627 18.0675C8.16378 17.4475 9.02417 16.696 9.77379 15.858C11.402 14.0412 12.5007 11.8208 12.9407 9.64215C13.3777 7.49135 13.1714 5.38385 12.2047 3.75722C11.9301 3.29026 11.5856 2.8635 11.1759 2.48004C10.0014 1.38995 8.65695 0.870421 7.30338 0.856505C5.88153 0.845682 4.43995 1.38995 3.1653 2.42438C2.62205 2.8666 2.1744 3.3753 1.8269 3.93658C0.931609 5.37148 0.659985 7.15273 0.955888 9.01593C1.25483 10.907 2.13646 12.8846 3.54162 14.6767C4.51886 15.926 5.748 17.0857 7.21082 18.0644L7.20627 18.0675ZM6.99989 3.27171C8.0697 3.27171 9.04086 3.71393 9.74041 4.42983C10.443 5.14573 10.877 6.13068 10.877 7.22231C10.877 8.3124 10.443 9.30198 9.74041 10.0148C9.03783 10.7307 8.07121 11.1729 6.99989 11.1729C5.93009 11.1729 4.95892 10.7307 4.25938 10.0148C3.5568 9.29889 3.12281 8.31394 3.12281 7.22231C3.12281 6.13222 3.5568 5.14264 4.25938 4.42983C4.96196 3.71393 5.92857 3.27171 6.99989 3.27171ZM9.18199 4.99884C8.62508 4.43138 7.84967 4.07574 6.99989 4.07574C6.14557 4.07574 5.3747 4.42674 4.8178 4.99884C4.2609 5.5663 3.91188 6.35642 3.91188 7.22231C3.91188 8.09283 4.25634 8.87831 4.8178 9.44578C5.3747 10.0132 6.15012 10.3689 6.99989 10.3689C7.85422 10.3689 8.62508 10.0179 9.18199 9.44578C9.73889 8.87831 10.0879 8.08819 10.0879 7.22231C10.0864 6.35179 9.74344 5.5663 9.18199 4.99884ZM10.3975 16.4316C9.54769 17.3779 8.56287 18.2268 7.45058 18.9149C7.31704 19.0169 7.12736 19.0308 6.97562 18.9319C5.33677 17.8696 3.96348 16.5924 2.88002 15.207C1.38836 13.3005 0.446025 11.1853 0.125843 9.14736C-0.200409 7.0816 0.104598 5.09625 1.1137 3.47581C1.51279 2.83722 2.01962 2.25584 2.64178 1.75332C4.06363 0.599832 5.69185 -0.0109263 7.30945 -0.000102736C8.86939 0.0138133 10.4081 0.602925 11.7434 1.84454C12.2123 2.27903 12.6038 2.77073 12.924 3.31036C14.009 5.13027 14.2427 7.45579 13.7677 9.80605C13.2958 12.1316 12.1289 14.4957 10.402 16.4239L10.3975 16.4316Z" fill="#FFA726"/>
</g>
<defs>
<clipPath id="clip0_1_505">
<rect width="14" height="19" fill="white"/>
</clipPath>
</defs>
</svg>
