<svg width="19" height="17" viewBox="0 0 19 17" fill="none" xmlns="http://www.w3.org/2000/svg">
<g clip-path="url(#clip0_1_432)">
<path fill-rule="evenodd" clip-rule="evenodd" d="M0.228368 2.86579C1.73057 3.76174 3.22082 4.66281 4.47874 5.82301C3.75768 8.58821 6.63556 10.7975 9.26023 12.0991C10.2877 12.6087 10.7419 12.9659 11.8857 12.7942L16.3902 16.6259C7.91307 19.0977 -1.6005 8.72767 0.228368 2.86579ZM13.0469 11.809L14.035 10.9377C14.3199 10.686 14.7903 10.6828 15.0802 10.9303L18.7233 14.0444C19.013 14.292 19.0167 14.7004 18.7317 14.9519L17.7433 15.8233C17.4582 16.0749 16.9878 16.0781 16.6979 15.8305L13.0549 12.7164C12.765 12.4691 12.7615 12.0607 13.0469 11.809ZM1.11627 1.03307L1.83335 0.277127C2.14074 -0.0468883 2.69783 -0.0936505 3.07103 0.173226L6.80064 2.84075C7.17384 3.1079 7.22723 3.5913 6.92016 3.91572L6.20276 4.67125C5.89521 4.99568 5.33828 5.04203 4.96492 4.77515L1.23595 2.10763C0.862745 1.84076 0.808566 1.35708 1.11627 1.03307Z" fill="white"/>
</g>
<defs>
<clipPath id="clip0_1_432">
<rect width="18.9429" height="17" fill="white"/>
</clipPath>
</defs>
</svg>
