<svg width="27" height="25" viewBox="0 0 27 25" fill="none" xmlns="http://www.w3.org/2000/svg">
<g clip-path="url(#clip0_1_360)">
<path d="M14.1547 0.426995L17.6066 8.26218L26.3671 9.02221C26.5054 9.03322 26.6373 9.08377 26.7462 9.16748C26.855 9.25119 26.9359 9.36433 26.9786 9.49263C27.0214 9.62093 27.0241 9.75866 26.9865 9.88846C26.9488 10.0183 26.8724 10.1343 26.767 10.222L20.1357 15.8369L22.0912 24.1631C22.1117 24.2506 22.1141 24.3411 22.0984 24.4296C22.0827 24.518 22.0492 24.6025 21.9998 24.6783C21.9504 24.754 21.886 24.8196 21.8105 24.8711C21.7349 24.9227 21.6496 24.9592 21.5595 24.9787C21.373 25.0169 21.1786 24.9815 21.019 24.8805L13.4933 20.5167L5.94793 24.9018C5.8691 24.9482 5.78159 24.9791 5.69045 24.9925C5.59931 25.006 5.50633 25.0017 5.41687 24.9801C5.32741 24.9585 5.24324 24.9199 5.16921 24.8665C5.09518 24.8131 5.03275 24.746 4.98552 24.6691C4.93822 24.5938 4.90669 24.5101 4.89274 24.4229C4.87879 24.3357 4.88269 24.2467 4.90422 24.161L6.86199 15.8348L0.23943 10.222C0.100227 10.102 0.0149208 9.93384 0.00177879 9.75348C-0.0113633 9.57311 0.0487041 9.39492 0.169117 9.25705C0.301827 9.12494 0.482352 9.04834 0.672291 9.04356L9.39983 8.28353L12.8517 0.426995C12.9074 0.3042 12.9986 0.199791 13.1143 0.12649C13.23 0.0531884 13.3651 0.0141602 13.5032 0.0141602C13.6413 0.0141602 13.7764 0.0531884 13.8921 0.12649C14.0078 0.199791 14.099 0.3042 14.1547 0.426995Z" fill="#FFA726"/>
</g>
<defs>
<clipPath id="clip0_1_360">
<rect width="27" height="25" fill="white"/>
</clipPath>
</defs>
</svg>
